<svg width="103" height="107" viewBox="0 0 103 107" fill="none" xmlns="http://www.w3.org/2000/svg">
<path d="M94.863 56.2089C91.773 40.1358 90.2332 32.0966 84.3695 27.3483C78.5216 22.6 70.1478 22.6 53.4056 22.6H49.5984C32.8561 22.6 24.4824 22.6 18.6239 27.3483C12.7654 32.0966 11.2257 40.1358 8.13562 56.2089C3.8011 78.8123 1.62856 90.1114 7.95634 97.5583C14.2841 105.005 26.0485 105 49.5931 105H53.4003C76.9449 105 88.7198 105 95.0423 97.5583C98.7124 93.2323 99.5245 87.6188 98.7124 79.25M35.6773 22.6V17.45C35.6773 13.3524 37.3439 9.42264 40.3107 6.5252C43.2774 3.62776 47.3011 2 51.4967 2C55.6923 2 59.716 3.62776 62.6827 6.5252C65.6494 9.42264 67.3161 13.3524 67.3161 17.45V22.6" stroke="#131314" stroke-width="3" stroke-linecap="round"/>
</svg>
