<svg width="37" height="41" viewBox="0 0 37 41" fill="none" xmlns="http://www.w3.org/2000/svg">
<path d="M34.4759 21.4493C33.3374 15.386 32.7701 12.3534 30.6098 10.5622C28.4553 8.77095 25.3702 8.77095 19.2021 8.77095H17.7994C11.6312 8.77095 8.54614 8.77095 6.38776 10.5622C4.22937 12.3534 3.6621 15.386 2.52365 21.4493C0.926721 29.9759 0.126313 34.2383 2.4576 37.0475C4.78888 39.8567 9.12313 39.8548 17.7975 39.8548H19.2001C27.8744 39.8548 32.2126 39.8548 34.5419 37.0475C35.8941 35.4156 36.1932 33.298 35.8941 30.1411M12.6706 8.77095V6.82821C12.6706 5.28247 13.2846 3.80005 14.3776 2.70704C15.4706 1.61404 16.953 1 18.4988 1C20.0445 1 21.527 1.61404 22.62 2.70704C23.713 3.80005 24.327 5.28247 24.327 6.82821V8.77095" stroke="white" stroke-width="1.5" stroke-linecap="round"/>
</svg>
