<svg width="54" height="59" viewBox="0 0 54 59" fill="none" xmlns="http://www.w3.org/2000/svg">
<path d="M48.9097 31.0447C47.3485 22.7293 46.5705 18.5703 43.6077 16.1138C40.653 13.6573 36.4221 13.6573 27.9628 13.6573H26.0392C17.5799 13.6573 13.349 13.6573 10.3889 16.1138C7.42886 18.5703 6.65087 22.7293 5.08958 31.0447C2.8995 42.7384 1.8018 48.584 4.99899 52.4366C8.19618 56.2892 14.1403 56.2865 26.0365 56.2865H27.9602C39.8564 56.2865 45.8058 56.2865 49.0003 52.4366C50.8547 50.1985 51.265 47.2944 50.8547 42.9649M19.0054 13.6573V10.993C19.0054 8.87311 19.8475 6.84006 21.3464 5.34109C22.8454 3.84212 24.8785 3 26.9983 3C29.1182 3 31.1512 3.84212 32.6502 5.34109C34.1492 6.84006 34.9913 8.87311 34.9913 10.993V13.6573" stroke="white" stroke-width="4.5" stroke-linecap="round"/>
</svg>
