<svg width="29" height="29" viewBox="0 0 29 29" fill="none" xmlns="http://www.w3.org/2000/svg">
<path d="M25.0676 4.02195C24.5958 3.55006 23.8306 3.55006 23.3588 4.02195L14.5447 12.836L5.73072 4.02195C5.25885 3.55006 4.49376 3.55006 4.02189 4.02195C3.55 4.49383 3.55 5.25891 4.02189 5.73078L12.8359 14.5448L4.02191 23.3588C3.55002 23.8307 3.55002 24.5957 4.02191 25.0677C4.49379 25.5396 5.25887 25.5396 5.73075 25.0677L14.5447 16.2537L23.3588 25.0677C23.8306 25.5396 24.5958 25.5396 25.0676 25.0677C25.5395 24.5957 25.5395 23.8307 25.0676 23.3589L16.2536 14.5448L25.0676 5.73078C25.5395 5.25891 25.5395 4.49383 25.0676 4.02195Z" fill="#0F0F0F"/>
</svg>
