<svg width="46" height="38" viewBox="0 0 46 38" fill="none" xmlns="http://www.w3.org/2000/svg">
<path d="M20.6667 9.28571H44M20.6667 9.28571C20.6667 13.3095 17.5326 16.5714 13.6667 16.5714C9.80068 16.5714 6.66667 13.3095 6.66667 9.28571M20.6667 9.28571C20.6667 5.26194 17.5326 2 13.6667 2C9.80068 2 6.66667 5.26194 6.66667 9.28571M6.66667 9.28571H2M25.3333 28.7143H2M25.3333 28.7143C25.3333 24.6904 28.4672 21.4286 32.3333 21.4286C36.1994 21.4286 39.3333 24.6904 39.3333 28.7143M25.3333 28.7143C25.3333 32.7382 28.4672 36 32.3333 36C36.1994 36 39.3333 32.7382 39.3333 28.7143M39.3333 28.7143H44" stroke="white" stroke-width="3" stroke-linecap="round" stroke-linejoin="round"/>
</svg>
