<svg width="36" height="35" viewBox="0 0 36 35" fill="none" xmlns="http://www.w3.org/2000/svg">
<path d="M19.3657 0C21.3343 0.00524973 22.3335 0.0157492 23.1962 0.040248L23.5357 0.0524973C23.9277 0.0664966 24.3144 0.0839957 24.7816 0.104995C26.6436 0.19249 27.914 0.486476 29.0287 0.918704C30.1836 1.36318 31.1566 1.96515 32.1295 2.93635C33.0197 3.81084 33.7083 4.86908 34.1472 6.03719C34.5794 7.15189 34.8734 8.42232 34.9609 10.286C34.9819 10.7515 34.9994 11.1382 35.0134 11.5319L35.0239 11.8714C35.0501 12.7324 35.0606 13.7316 35.0641 15.7002L35.0659 17.0056V19.298C35.0701 20.5744 35.0567 21.8508 35.0256 23.1268L35.0151 23.4663C35.0011 23.86 34.9836 24.2468 34.9626 24.7123C34.8751 26.5759 34.5777 27.8446 34.1472 28.961C33.7083 30.1292 33.0197 31.1874 32.1295 32.0619C31.255 32.9521 30.1968 33.6406 29.0287 34.0795C27.914 34.5118 26.6436 34.8057 24.7816 34.8932L23.5357 34.9457L23.1962 34.9562C22.3335 34.9807 21.3343 34.993 19.3657 34.9965L18.0602 34.9982H15.7696C14.4926 35.0027 13.2156 34.9893 11.939 34.958L11.5996 34.9475C11.1842 34.9318 10.7688 34.9137 10.3536 34.8932C8.49172 34.8057 7.22128 34.5118 6.10484 34.0795C4.93735 33.6404 3.87973 32.9518 3.00575 32.0619C2.11495 31.1876 1.42577 30.1293 0.98635 28.961C0.554121 27.8463 0.260136 26.5759 0.17264 24.7123L0.120143 23.4663L0.111394 23.1268C0.0791359 21.8508 0.0645517 20.5744 0.0676457 19.298V15.7002C0.0628022 14.4238 0.0756362 13.1474 0.106144 11.8714L0.118393 11.5319C0.132393 11.1382 0.149892 10.7515 0.170891 10.286C0.258386 8.42232 0.552371 7.15364 0.984599 6.03719C1.42504 4.8686 2.11543 3.81032 3.0075 2.93635C3.88097 2.04661 4.93798 1.35806 6.10484 0.918704C7.22128 0.486476 8.48997 0.19249 10.3536 0.104995C10.8191 0.0839957 11.2076 0.0664966 11.5996 0.0524973L11.939 0.0419978C13.2151 0.0109067 14.4915 -0.00251059 15.7679 0.00174978L19.3657 0ZM17.5668 8.74956C15.2462 8.74956 13.0208 9.67138 11.3799 11.3122C9.73903 12.9531 8.8172 15.1786 8.8172 17.4991C8.8172 19.8196 9.73903 22.0451 11.3799 23.686C13.0208 25.3268 15.2462 26.2487 17.5668 26.2487C19.8873 26.2487 22.1128 25.3268 23.7536 23.686C25.3945 22.0451 26.3163 19.8196 26.3163 17.4991C26.3163 15.1786 25.3945 12.9531 23.7536 11.3122C22.1128 9.67138 19.8873 8.74956 17.5668 8.74956ZM17.5668 12.2494C18.2562 12.2493 18.9388 12.3849 19.5758 12.6487C20.2128 12.9124 20.7916 13.299 21.2791 13.7864C21.7667 14.2738 22.1535 14.8524 22.4174 15.4893C22.6814 16.1262 22.8173 16.8088 22.8174 17.4982C22.8175 18.1876 22.6818 18.8703 22.4181 19.5073C22.1544 20.1443 21.7678 20.7231 21.2804 21.2106C20.793 21.6982 20.2143 22.085 19.5774 22.3489C18.9405 22.6128 18.2579 22.7487 17.5685 22.7489C16.1762 22.7489 14.8409 22.1958 13.8564 21.2112C12.8719 20.2267 12.3188 18.8914 12.3188 17.4991C12.3188 16.1068 12.8719 14.7715 13.8564 13.787C14.8409 12.8025 16.1762 12.2494 17.5685 12.2494M26.7555 6.12469C26.1754 6.12469 25.619 6.35515 25.2088 6.76536C24.7986 7.17558 24.5682 7.73195 24.5682 8.31208C24.5682 8.89221 24.7986 9.44858 25.2088 9.8588C25.619 10.269 26.1754 10.4995 26.7555 10.4995C27.3357 10.4995 27.8921 10.269 28.3023 9.8588C28.7125 9.44858 28.9429 8.89221 28.9429 8.31208C28.9429 7.73195 28.7125 7.17558 28.3023 6.76536C27.8921 6.35515 27.3357 6.12469 26.7555 6.12469Z" fill="white"/>
</svg>
