<svg width="31" height="35" viewBox="0 0 31 35" fill="none" xmlns="http://www.w3.org/2000/svg">
<path d="M23.8677 5.39541C22.5601 3.90216 21.8394 1.98482 21.8396 0H15.9276V23.7245C15.883 25.0087 15.3412 26.2253 14.4167 27.1177C13.4922 28.01 12.2572 28.5084 10.9723 28.5077C8.25543 28.5077 5.99777 26.2883 5.99777 23.5332C5.99777 20.2423 9.17379 17.7742 12.4455 18.7883V12.7423C5.84471 11.8622 0.0666504 16.9898 0.0666504 23.5332C0.0666504 29.9043 5.34726 34.4388 10.9531 34.4388C16.9608 34.4388 21.8396 29.5599 21.8396 23.5332V11.4987C24.2369 13.2204 27.1152 14.1441 30.0667 14.139V8.22704C30.0667 8.22704 26.4697 8.39923 23.8677 5.39541Z" fill="white"/>
</svg>
