<svg width="39" height="32" viewBox="0 0 39 32" fill="none" xmlns="http://www.w3.org/2000/svg">
<path fill-rule="evenodd" clip-rule="evenodd" d="M19.0667 0C20.6912 0 22.3574 0.0418002 23.9724 0.1102L25.8801 0.2014L27.706 0.3097L29.416 0.4256L30.9777 0.5472C32.6729 0.676194 34.2682 1.39922 35.4826 2.58894C36.697 3.77866 37.4526 5.35875 37.6164 7.0509L37.6923 7.8584L37.8349 9.5874C37.9679 11.3791 38.0666 13.3323 38.0666 15.2C38.0666 17.0677 37.9679 19.0209 37.8349 20.8126L37.6923 22.5416L37.6164 23.3491C37.4525 25.0415 36.6966 26.6219 35.4818 27.8116C34.2671 29.0014 32.6713 29.7242 30.9758 29.8528L29.4178 29.9725L27.7079 30.0903L25.8801 30.1986L23.9724 30.2898C22.3381 30.3606 20.7025 30.3973 19.0667 30.4C17.4308 30.3973 15.7952 30.3606 14.1609 30.2898L12.2532 30.1986L10.4274 30.0903L8.71735 29.9725L7.15555 29.8528C5.4604 29.7238 3.86513 29.0008 2.65073 27.8111C1.43634 26.6213 0.680713 25.0412 0.51695 23.3491L0.44095 22.5416L0.29845 20.8126C0.153733 18.9451 0.0764157 17.073 0.0666504 15.2C0.0666504 13.3323 0.16545 11.3791 0.29845 9.5874L0.44095 7.8584L0.51695 7.0509C0.680649 5.35905 1.436 3.7792 2.65001 2.58952C3.86402 1.39984 5.45883 0.676621 7.15365 0.5472L8.71355 0.4256L10.4236 0.3097L12.2514 0.2014L14.1589 0.1102C15.7939 0.0393817 17.4302 0.0026402 19.0667 0ZM15.2667 10.5925V19.8075C15.2667 20.6853 16.2166 21.2325 16.9766 20.7955L24.9567 16.188C25.1303 16.088 25.2745 15.9441 25.3748 15.7706C25.4751 15.5972 25.5279 15.4004 25.5279 15.2C25.5279 14.9996 25.4751 14.8028 25.3748 14.6294C25.2745 14.4559 25.1303 14.312 24.9567 14.212L16.9766 9.6064C16.8033 9.50631 16.6066 9.45364 16.4065 9.45367C16.2063 9.4537 16.0097 9.50644 15.8363 9.60658C15.663 9.70672 15.5191 9.85074 15.4191 10.0241C15.3191 10.1975 15.2665 10.3942 15.2667 10.5944V10.5925Z" fill="white"/>
</svg>
