<svg width="31" height="27" viewBox="0 0 31 27" fill="none" xmlns="http://www.w3.org/2000/svg">
<path d="M22.3182 0.680115C19.4545 0.680115 16.9645 1.97148 15.5 4.13557C14.0355 1.97148 11.5455 0.680115 8.68182 0.680115C6.51264 0.682641 4.43303 1.54546 2.89919 3.0793C1.36535 4.61315 0.502526 6.69276 0.5 8.86193C0.5 12.8438 2.98182 16.9878 7.87727 21.1769C10.1205 23.0884 12.5437 24.7781 15.1127 26.2224C15.2318 26.2864 15.3648 26.3198 15.5 26.3198C15.6352 26.3198 15.7682 26.2864 15.8873 26.2224C18.4563 24.7781 20.8795 23.0884 23.1227 21.1769C28.0182 16.9878 30.5 12.8438 30.5 8.86193C30.4975 6.69276 29.6347 4.61315 28.1008 3.0793C26.567 1.54546 24.4874 0.682641 22.3182 0.680115ZM15.5 24.5588C13.2623 23.2674 2.13636 16.4601 2.13636 8.86193C2.13817 7.12652 2.82836 5.46271 4.05548 4.23559C5.2826 3.00847 6.94641 2.31828 8.68182 2.31648C11.4473 2.31648 13.7695 3.7933 14.7432 6.17148C14.8048 6.32154 14.9097 6.44989 15.0444 6.54022C15.1792 6.63055 15.3378 6.67878 15.5 6.67878C15.6622 6.67878 15.8208 6.63055 15.9556 6.54022C16.0903 6.44989 16.1952 6.32154 16.2568 6.17148C17.2305 3.7933 19.5527 2.31648 22.3182 2.31648C24.0536 2.31828 25.7174 3.00847 26.9445 4.23559C28.1716 5.46271 28.8618 7.12652 28.8636 8.86193C28.8636 16.4601 17.7377 23.2674 15.5 24.5588Z" fill="white"/>
</svg>
