<svg width="20" height="18" viewBox="0 0 20 18" fill="none" xmlns="http://www.w3.org/2000/svg">
<path d="M10.0005 14.4993L10.2475 14.64L15.0973 17.4023L15.0975 17.4024C15.3615 17.5529 15.6497 17.5179 15.8587 17.3747C16.0657 17.2329 16.1655 17.0105 16.1058 16.7683L10.0005 14.4993ZM10.0005 14.4993L9.75329 14.6396L4.90343 17.3909L4.90255 17.3914C4.63846 17.5419 4.35031 17.5069 4.14133 17.3637C3.93423 17.2219 3.83446 16.9993 3.89429 16.7571L5.17973 11.5628L5.25579 11.2555L5.01048 11.0553L0.721576 7.55565L0.721398 7.55551C0.328867 7.23551 0.478884 6.56293 1.10894 6.51573L1.10894 6.51574L1.11144 6.51554L6.75596 6.06432L7.05045 6.04078L7.17191 5.77147L9.38064 0.874135L9.38154 0.87213C9.48626 0.637185 9.72349 0.5 10 0.5C10.2765 0.5 10.5137 0.637185 10.6185 0.872131L10.6192 0.87375L12.8279 5.7821L12.9493 6.05176L13.244 6.07533L18.8886 6.52655L18.8911 6.52673C19.5211 6.57393 19.6711 7.24651 19.2786 7.56651L19.2784 7.56666L14.9895 11.0663L14.7442 11.2665L14.8203 11.5738L16.1057 16.7681L10.0005 14.4993Z" stroke="white"/>
</svg>
