<svg width="38" height="36" viewBox="0 0 38 36" fill="none" xmlns="http://www.w3.org/2000/svg">
<path d="M19.2571 29.7201L19.0005 29.5662L18.7437 29.7196L9.52892 35.2223L9.52803 35.2228C8.211 36.013 6.62276 34.8416 6.96364 33.3886L9.40604 22.9999L9.47558 22.7041L9.2451 22.5061L1.09618 15.5068L1.096 15.5066C-0.050444 14.5229 0.560056 12.6522 2.07533 12.5327L2.07795 12.5325L12.8026 11.6301L13.1019 11.6049L13.2202 11.3287L17.4168 1.53406L17.4176 1.5321C18.0004 0.155966 19.9996 0.155966 20.5824 1.5321L20.583 1.53368L24.7796 11.3504L24.8978 11.6269L25.1974 11.6521L35.922 12.5545L35.9247 12.5547C37.4399 12.6742 38.0504 14.5449 36.904 15.5287L36.9038 15.5288L28.7549 22.5282L28.5244 22.7261L28.594 23.0219L31.0364 33.4106C31.0364 33.4107 31.0364 33.4108 31.0364 33.4108C31.3771 34.8638 29.7889 36.035 28.472 35.2448L28.4718 35.2447L19.2571 29.7201Z" stroke="white"/>
</svg>
